<?xml version="1.0" encoding="iso-8859-1"?>
<!-- Generator: Adobe Illustrator 19.0.0, SVG Export Plug-In . SVG Version: 6.00 Build 0)  -->
<svg version="1.1" id="Capa_1" xmlns="http://www.w3.org/2000/svg" xmlns:xlink="http://www.w3.org/1999/xlink" x="0px" y="0px"
	 viewBox="0 0 512 512" style="enable-background:new 0 0 512 512;" xml:space="preserve">
<path style="fill:#ED718B;" d="M469.905,445.866H42.095C18.847,445.866,0,427.019,0,403.771V108.23
	c0-23.249,18.847-42.095,42.095-42.095h427.81c23.248,0,42.095,18.846,42.095,42.095v295.541
	C512,427.019,493.153,445.866,469.905,445.866z"/>
<circle style="opacity:0.1;enable-background:new    ;" cx="270.73" cy="236.84" r="97.04"/>
<circle style="fill:#FFFFFF;" cx="256" cy="222.11" r="97.04"/>
<path style="opacity:0.1;enable-background:new    ;" d="M319.203,148.476c14.588,16.98,23.407,39.061,23.407,63.203
	c0,53.595-43.447,97.042-97.042,97.042c-24.142,0-46.223-8.819-63.203-23.407c17.797,20.715,44.182,33.839,73.635,33.839
	c53.595,0,97.042-43.447,97.042-97.042C353.042,192.658,339.918,166.273,319.203,148.476z"/>
<path style="fill:#ED718B;" d="M301.135,232.254l-61.707,30.853c-8.453,4.227-18.399-1.92-18.399-11.371v-61.707
	c0-9.451,9.946-15.598,18.399-11.371l61.707,30.853C310.505,214.197,310.505,227.569,301.135,232.254z"/>
<path style="fill:#E8E8E8;" d="M0,373.833v29.937c0,23.248,18.847,42.095,42.095,42.095h427.81
	c23.248,0,42.095-18.847,42.095-42.095v-29.937H0z"/>
<path style="fill:#404B58;" d="M135.618,445.866h43.167l72.032-72.032H207.65L135.618,445.866z M18.995,438.956
	c6.633,4.363,14.567,6.91,23.1,6.91h13.157l72.032-72.032H84.118L18.995,438.956z M259.15,445.866h43.167l72.032-72.032h-43.167
	L259.15,445.866z M454.714,373.833l-72.032,72.032h43.167l72.032-72.032H454.714z"/>
<path style="opacity:0.1;enable-background:new    ;" d="M469.905,66.134h-31.469c23.248,0,42.095,18.847,42.095,42.095V403.77
	c0,23.248-18.847,42.095-42.095,42.095h31.469c23.248,0,42.095-18.847,42.095-42.095V108.229
	C512,84.981,493.153,66.134,469.905,66.134z"/>
<g>
</g>
<g>
</g>
<g>
</g>
<g>
</g>
<g>
</g>
<g>
</g>
<g>
</g>
<g>
</g>
<g>
</g>
<g>
</g>
<g>
</g>
<g>
</g>
<g>
</g>
<g>
</g>
<g>
</g>
</svg>
